<mxfile host="app.diagrams.net" modified="2024-06-30T11:32:56.036Z" agent="Mozilla/5.0 (X11; Linux x86_64) AppleWebKit/537.36 (KHTML, like Gecko) Chrome/125.0.0.0 Safari/537.36" etag="_iQ6WqjjnPQXs_cpsBsc" version="24.6.4" type="github">
  <diagram name="Page-1" id="52a04d89-c75d-2922-d76d-85b35f80e030">
    <mxGraphModel dx="258" dy="429" grid="1" gridSize="10" guides="1" tooltips="1" connect="1" arrows="1" fold="1" page="1" pageScale="1" pageWidth="1100" pageHeight="850" background="none" math="0" shadow="0">
      <root>
        <mxCell id="0" />
        <mxCell id="1" parent="0" />
        <mxCell id="XVJl-aIM2az91T3bEtW3-6" value="" style="edgeStyle=orthogonalEdgeStyle;rounded=0;orthogonalLoop=1;jettySize=auto;html=1;" edge="1" parent="1" source="XVJl-aIM2az91T3bEtW3-4" target="XVJl-aIM2az91T3bEtW3-5">
          <mxGeometry relative="1" as="geometry" />
        </mxCell>
        <mxCell id="XVJl-aIM2az91T3bEtW3-22" value="" style="edgeStyle=orthogonalEdgeStyle;rounded=0;orthogonalLoop=1;jettySize=auto;html=1;" edge="1" parent="1" source="XVJl-aIM2az91T3bEtW3-4" target="XVJl-aIM2az91T3bEtW3-21">
          <mxGeometry relative="1" as="geometry" />
        </mxCell>
        <mxCell id="XVJl-aIM2az91T3bEtW3-4" value="&lt;p class=&quot;docData;DOCY;v5;1131;BQiAAgAAEYQCAAAGiAIAAAMIBAAABRYEAAAAAAAAAAAAAAAAAAAAAAAAAAAAAAAAAAAAAAAAAAAAAAAAAAAAAAAAAAAAAAAAAAAAAAAAAAAAAAAAAAAAAAAAAAAAAAAAAAAAAAAAAAAAAAAAAAAAAAAAAAAAAAAAAAAAAAAAAAAAAAAAAAAAAAAAAAAAAAAAAAAAAAAAAAAAAAAAAAAAAAAAAAAAAAAAAAAAAAAAAAAAAAAAAAAAAAAAAAAAAAAAAAAAAAAAAAAAAAAAAAAAAAAAAAAAAAAAAAAAAAAAAAAAAAAAAAAAAAAAAAAAAAAAAAAAAAAAAAAAAAAAAAAAAAAAAAAAAAAAAAAAAAAAAAAAAAAAAAAAAAAAAAAAAAAAAAAAAAAAAAAAAAAAAAAAAAAAAAAAAAAAAAAAAAAAAAAAAAAAAAAAAAAAAAAAAAAAAAAAAAAAAAAAAAAAAAAAAAAAAAAAAAAAAAAAAAAAAAAAAAAAAAAAAAAAAAAAAAAAAAAAAAAAAAAAAAAAAAAAAAAAAAAAAAAAAAAAAAAAAAAAAAAAAAAAAAAAAAAAAAAAAAAAAAAAAAAAAAAAAAAAAAAAAAAAAAAAAAAAAAAAAAAAAAAAAAAAAAAAAAAAAAAAAAAAAAAAAAAAAAAAAAAAAAAAAAAAAAAAAAAAAAAAAAAAAAAAAAAAAAAAAAAAAAAAAAAAAAAAAAAAAAAAAAAAAAAAAAAAAAAAAAAAAAAAAAAAAAAAAAAAAAAAAAAAAAAAAAAAAAAAAAAAAAAAAAAAAAAAAAAAAAAAAAAAAAAAAAAAAAAAAAAAAAAAAAAAAAAAAAAAAAAAAAAAAAAAAAAAAAAAAAAAAAAAfAEAAADzAAAAASQAAAABBgAAAAAJBgAAAAAaBgwAAAAIBBYAAAAWBBYAAAAbBgAAAAACxQAAAAUWAAAAAQwAAAAIBBYAAAAWBBYAAAAIAAAAAAVvAAAAAQwAAAAIBBYAAAAWBBYAAAAIWQAAAABUAAAAUgBlAGMAZQBwAGMAaQDzAG4AIABkAGUAIABzAG8AbABpAGMAaQB0AHUAZABlAHMAIABkAGUAIABuAHUAZQB2AG8AcwAgAGwAaQBiAHIAbwBzAC4ABRYAAAABDAAAAAgEFgAAABYEFgAAAAgAAAAABRYAAAABDAAAAAgEFgAAABYEFgAAAAgAAAAAAH8AAAABJAAAAAEGAAAAAAkGAAAAABoGDAAAAAgEEgAAABYEEgAAABsGAAAAAAJRAAAABRYAAAABDAAAAAgEEgAAABYEEgAAAAgAAAAABRYAAAABDAAAAAgEEgAAABYEEgAAAAgAAAAABRYAAAABDAAAAAgEEgAAABYEEgAAAAgAAAAACgAAAAAAAAAAEQAAAABRAAAAABIAAAABBgAAAAAJBgAAAAAbBgAAAAABMAAAABkGCgAAAGUAcwAtAEUAUwAaBgoAAABhAHIALQBTAEEAGwYKAAAAZQBzAC0ARQBTAAIAAAAA&quot; style=&quot;margin-top:0pt;margin-bottom:0pt;border:none;mso-border-left-alt:none;mso-border-top-alt:none;mso-border-right-alt:none;mso-border-bottom-alt:none;mso-border-between:none&quot;&gt;&lt;span style=&quot;font-family: &amp;quot;Times New Roman&amp;quot;; font-size: 11pt;&quot;&gt;Recepción de solicitudes de nuevos libros.&lt;/span&gt;&lt;/p&gt;" style="rounded=0;whiteSpace=wrap;html=1;" vertex="1" parent="1">
          <mxGeometry x="670" y="160" width="120" height="70" as="geometry" />
        </mxCell>
        <mxCell id="XVJl-aIM2az91T3bEtW3-8" value="" style="edgeStyle=orthogonalEdgeStyle;rounded=0;orthogonalLoop=1;jettySize=auto;html=1;" edge="1" parent="1" source="XVJl-aIM2az91T3bEtW3-5" target="XVJl-aIM2az91T3bEtW3-7">
          <mxGeometry relative="1" as="geometry" />
        </mxCell>
        <mxCell id="XVJl-aIM2az91T3bEtW3-5" value="Verificación de requisitos técnicos" style="rounded=0;whiteSpace=wrap;html=1;" vertex="1" parent="1">
          <mxGeometry x="670" y="270" width="120" height="60" as="geometry" />
        </mxCell>
        <mxCell id="XVJl-aIM2az91T3bEtW3-10" value="" style="edgeStyle=orthogonalEdgeStyle;rounded=0;orthogonalLoop=1;jettySize=auto;html=1;" edge="1" parent="1" source="XVJl-aIM2az91T3bEtW3-7" target="XVJl-aIM2az91T3bEtW3-9">
          <mxGeometry relative="1" as="geometry" />
        </mxCell>
        <mxCell id="XVJl-aIM2az91T3bEtW3-11" value="Sí" style="edgeLabel;html=1;align=center;verticalAlign=middle;resizable=0;points=[];" vertex="1" connectable="0" parent="XVJl-aIM2az91T3bEtW3-10">
          <mxGeometry x="0.0667" y="-1" relative="1" as="geometry">
            <mxPoint x="1" y="-7" as="offset" />
          </mxGeometry>
        </mxCell>
        <mxCell id="XVJl-aIM2az91T3bEtW3-13" value="" style="edgeStyle=orthogonalEdgeStyle;rounded=0;orthogonalLoop=1;jettySize=auto;html=1;" edge="1" parent="1" source="XVJl-aIM2az91T3bEtW3-7" target="XVJl-aIM2az91T3bEtW3-12">
          <mxGeometry relative="1" as="geometry" />
        </mxCell>
        <mxCell id="XVJl-aIM2az91T3bEtW3-14" value="No" style="edgeLabel;html=1;align=center;verticalAlign=middle;resizable=0;points=[];" vertex="1" connectable="0" parent="XVJl-aIM2az91T3bEtW3-13">
          <mxGeometry x="-0.0667" y="4" relative="1" as="geometry">
            <mxPoint as="offset" />
          </mxGeometry>
        </mxCell>
        <mxCell id="XVJl-aIM2az91T3bEtW3-7" value="¿Aprobación&lt;br&gt;Técnica?" style="rhombus;whiteSpace=wrap;html=1;rounded=0;" vertex="1" parent="1">
          <mxGeometry x="680" y="360" width="100" height="100" as="geometry" />
        </mxCell>
        <mxCell id="XVJl-aIM2az91T3bEtW3-25" value="" style="edgeStyle=orthogonalEdgeStyle;rounded=0;orthogonalLoop=1;jettySize=auto;html=1;" edge="1" parent="1" source="XVJl-aIM2az91T3bEtW3-9" target="XVJl-aIM2az91T3bEtW3-24">
          <mxGeometry relative="1" as="geometry" />
        </mxCell>
        <mxCell id="XVJl-aIM2az91T3bEtW3-30" value="" style="edgeStyle=orthogonalEdgeStyle;rounded=0;orthogonalLoop=1;jettySize=auto;html=1;" edge="1" parent="1" source="XVJl-aIM2az91T3bEtW3-9" target="XVJl-aIM2az91T3bEtW3-29">
          <mxGeometry relative="1" as="geometry" />
        </mxCell>
        <mxCell id="XVJl-aIM2az91T3bEtW3-9" value="Preparación de archivos digitales" style="whiteSpace=wrap;html=1;rounded=0;" vertex="1" parent="1">
          <mxGeometry x="670" y="510" width="120" height="60" as="geometry" />
        </mxCell>
        <mxCell id="XVJl-aIM2az91T3bEtW3-16" value="" style="edgeStyle=orthogonalEdgeStyle;rounded=0;orthogonalLoop=1;jettySize=auto;html=1;" edge="1" parent="1" source="XVJl-aIM2az91T3bEtW3-12" target="XVJl-aIM2az91T3bEtW3-15">
          <mxGeometry relative="1" as="geometry" />
        </mxCell>
        <mxCell id="XVJl-aIM2az91T3bEtW3-12" value="Notificación de inconformidades por requisitos técnicos&amp;nbsp;" style="whiteSpace=wrap;html=1;rounded=0;" vertex="1" parent="1">
          <mxGeometry x="520" y="370" width="110" height="80" as="geometry" />
        </mxCell>
        <mxCell id="XVJl-aIM2az91T3bEtW3-15" value="Informe de inconformidades" style="shape=document;whiteSpace=wrap;html=1;boundedLbl=1;rounded=0;" vertex="1" parent="1">
          <mxGeometry x="520" y="280" width="110" height="50" as="geometry" />
        </mxCell>
        <mxCell id="XVJl-aIM2az91T3bEtW3-18" value="" style="edgeStyle=orthogonalEdgeStyle;rounded=0;orthogonalLoop=1;jettySize=auto;html=1;entryX=0;entryY=0.357;entryDx=0;entryDy=0;exitX=1;exitY=0.5;exitDx=0;exitDy=0;entryPerimeter=0;" edge="1" parent="1" source="XVJl-aIM2az91T3bEtW3-17" target="XVJl-aIM2az91T3bEtW3-4">
          <mxGeometry relative="1" as="geometry" />
        </mxCell>
        <mxCell id="XVJl-aIM2az91T3bEtW3-17" value="Formulario de Solicitud" style="shape=document;whiteSpace=wrap;html=1;boundedLbl=1;" vertex="1" parent="1">
          <mxGeometry x="520" y="160" width="80" height="50" as="geometry" />
        </mxCell>
        <mxCell id="XVJl-aIM2az91T3bEtW3-20" value="" style="edgeStyle=orthogonalEdgeStyle;rounded=0;orthogonalLoop=1;jettySize=auto;html=1;entryX=0;entryY=0.75;entryDx=0;entryDy=0;" edge="1" parent="1" source="XVJl-aIM2az91T3bEtW3-19" target="XVJl-aIM2az91T3bEtW3-4">
          <mxGeometry relative="1" as="geometry">
            <Array as="points">
              <mxPoint x="640" y="240" />
              <mxPoint x="640" y="213" />
            </Array>
          </mxGeometry>
        </mxCell>
        <mxCell id="XVJl-aIM2az91T3bEtW3-19" value="Archivo digital" style="shape=document;whiteSpace=wrap;html=1;boundedLbl=1;" vertex="1" parent="1">
          <mxGeometry x="520" y="220" width="80" height="40" as="geometry" />
        </mxCell>
        <mxCell id="XVJl-aIM2az91T3bEtW3-21" value="Informe de solicitud" style="shape=document;whiteSpace=wrap;html=1;boundedLbl=1;rounded=0;" vertex="1" parent="1">
          <mxGeometry x="820" y="170" width="70" height="50" as="geometry" />
        </mxCell>
        <mxCell id="XVJl-aIM2az91T3bEtW3-24" value="" style="whiteSpace=wrap;html=1;rounded=0;" vertex="1" parent="1">
          <mxGeometry x="670" y="620" width="120" height="60" as="geometry" />
        </mxCell>
        <mxCell id="XVJl-aIM2az91T3bEtW3-29" value="Archivo digital preparado" style="shape=document;whiteSpace=wrap;html=1;boundedLbl=1;rounded=0;" vertex="1" parent="1">
          <mxGeometry x="520" y="515" width="80" height="50" as="geometry" />
        </mxCell>
        <mxCell id="XVJl-aIM2az91T3bEtW3-31" style="edgeStyle=orthogonalEdgeStyle;rounded=0;orthogonalLoop=1;jettySize=auto;html=1;entryX=0.314;entryY=0.009;entryDx=0;entryDy=0;entryPerimeter=0;" edge="1" parent="1" source="XVJl-aIM2az91T3bEtW3-19" target="XVJl-aIM2az91T3bEtW3-5">
          <mxGeometry relative="1" as="geometry" />
        </mxCell>
      </root>
    </mxGraphModel>
  </diagram>
</mxfile>
